<?xml version="1.0" encoding="iso-8859-1"?>
<!-- Uploaded to: SVG Repo, www.svgrepo.com, Generator: SVG Repo Mixer Tools -->
<svg height="800px" width="800px" version="1.1" id="Layer_1" xmlns="http://www.w3.org/2000/svg" xmlns:xlink="http://www.w3.org/1999/xlink" 
	 viewBox="0 0 511.999 511.999" xml:space="preserve">
<path style="fill:#4C4E55;" d="M451.237,499.408l-51.203-93.872c-2.257-4.138-7.441-5.661-11.578-3.405
	c-4.138,2.257-5.662,7.441-3.405,11.578l11.734,21.515H115.217l11.735-21.515c2.256-4.138,0.733-9.321-3.405-11.578
	c-4.138-2.254-9.321-0.733-11.578,3.405l-51.203,93.872c-2.089,3.831-0.875,8.782,2.768,11.193c4.121,2.728,9.849,1.32,12.216-3.02
	l6.883-12.62h346.736l6.884,12.62c2.363,4.332,8.1,5.756,12.216,3.02C452.106,508.183,453.329,503.245,451.237,499.408z
	 M91.942,477.894l13.965-25.601h300.188l13.965,25.601H91.942z"/>
<circle style="fill:#FDDD85;" cx="298.674" cy="34.135" r="34.135"/>
<circle style="fill:#F2C127;" cx="298.674" cy="34.135" r="17.068"/>
<circle style="fill:#FDDD85;" cx="213.335" cy="34.135" r="34.135"/>
<circle style="fill:#F2C127;" cx="213.335" cy="34.135" r="17.068"/>
<path style="fill:#E5563C;" d="M433.413,107.187L262.736,60.638c-4.406-1.2-9.063-1.202-13.471,0.001L78.589,107.188
	c-11.108,3.03-18.866,13.186-18.866,24.699v260.669c0,14.116,11.485,25.601,25.601,25.601h341.353
	c14.116,0,25.601-11.485,25.601-25.601V131.887C452.278,120.374,444.521,110.216,433.413,107.187z"/>
<path style="fill:#CF442B;" d="M85.324,379.755V106.285c0-0.318,0.028-0.63,0.039-0.946l-6.776,1.848
	c-11.108,3.029-18.866,13.186-18.866,24.699v260.67c0,14.116,11.485,25.601,25.601,25.601h341.353
	c14.116,0,25.601-11.485,25.601-25.601H98.124C91.055,392.555,85.324,386.824,85.324,379.755z"/>
<g>
	<circle style="fill:#FDDD85;" cx="392.546" cy="324.285" r="25.601"/>
	<circle style="fill:#FDDD85;" cx="119.463" cy="324.285" r="25.601"/>
</g>
<g>
	<path style="fill:#B83C26;" d="M256,349.886c-4.713,0-8.534-3.821-8.534-8.534v-34.135c0-4.713,3.821-8.534,8.534-8.534
		c4.713,0,8.534,3.821,8.534,8.534v34.135C264.534,346.065,260.713,349.886,256,349.886z"/>
	<path style="fill:#B83C26;" d="M290.135,349.886c-4.713,0-8.534-3.821-8.534-8.534v-34.135c0-4.713,3.821-8.534,8.534-8.534
		s8.534,3.821,8.534,8.534v34.135C298.669,346.065,294.848,349.886,290.135,349.886z"/>
	<path style="fill:#B83C26;" d="M324.271,349.886c-4.713,0-8.534-3.821-8.534-8.534v-34.135c0-4.713,3.821-8.534,8.534-8.534
		s8.534,3.821,8.534,8.534v34.135C332.805,346.065,328.984,349.886,324.271,349.886z"/>
	<path style="fill:#B83C26;" d="M221.865,349.886c-4.713,0-8.534-3.821-8.534-8.534v-34.135c0-4.713,3.821-8.534,8.534-8.534
		s8.534,3.821,8.534,8.534v34.135C230.399,346.065,226.578,349.886,221.865,349.886z"/>
	<path style="fill:#B83C26;" d="M187.73,349.886c-4.713,0-8.534-3.821-8.534-8.534v-34.135c0-4.713,3.821-8.534,8.534-8.534
		s8.534,3.821,8.534,8.534v34.135C196.264,346.065,192.443,349.886,187.73,349.886z"/>
</g>
<path style="fill:#EBEBEC;" d="M411.854,136.69L275.313,99.452c-2.562-0.7-5.311-0.164-7.425,1.451
	c-2.113,1.615-3.354,4.122-3.354,6.781v156.864c0,4.713,3.821,8.534,8.534,8.534h136.541c4.713,0,8.534-3.821,8.534-8.534V144.922
	C418.143,141.075,415.567,137.703,411.854,136.69z"/>
<g>
	<path style="fill:#9B9DA1;" d="M275.313,99.451c-2.562-0.7-5.311-0.164-7.425,1.451c-2.113,1.615-3.354,4.122-3.354,6.781v65.127
		l59.948-59.948L275.313,99.451z"/>
	<path style="fill:#9B9DA1;" d="M411.854,136.69l-24.791-6.761l-122.53,122.53v12.089c0,4.713,3.821,8.534,8.534,8.534h67.559
		l77.516-77.516v-50.644C418.143,141.075,415.567,137.703,411.854,136.69z"/>
	<path style="fill:#9B9DA1;" d="M366.94,273.082h42.669c4.713,0,8.534-3.821,8.534-8.534v-42.669L366.94,273.082z"/>
</g>
<path style="fill:#EBEBEC;" d="M244.114,100.903c-2.115-1.616-4.863-2.152-7.425-1.451L100.147,136.69
	c-3.712,1.012-6.289,4.384-6.289,8.233v119.625c0,4.713,3.821,8.534,8.534,8.534h136.541c4.713,0,8.534-3.821,8.534-8.534V107.684
	C247.466,105.025,246.227,102.517,244.114,100.903z"/>
<g>
	<path style="fill:#9B9DA1;" d="M100.147,136.69c-3.712,1.012-6.289,4.384-6.289,8.233v41.399l65.885-65.885L100.147,136.69z"/>
	<path style="fill:#9B9DA1;" d="M244.114,100.903c-2.115-1.616-4.863-2.152-7.425-1.451l-1.651,0.45L93.858,241.08v23.468
		c0,4.713,3.821,8.534,8.534,8.534h59.737l85.338-85.338v-80.06C247.466,105.025,246.227,102.517,244.114,100.903z"/>
	<path style="fill:#9B9DA1;" d="M191.997,273.082h46.936c4.713,0,8.534-3.821,8.534-8.534v-46.936L191.997,273.082z"/>
</g>
<g>
	<path style="fill:#B83C26;" d="M358.406,384.022H153.594c-4.713,0-8.534-3.821-8.534-8.534s3.821-8.534,8.534-8.534h204.812
		c4.713,0,8.534,3.821,8.534,8.534S363.119,384.022,358.406,384.022z"/>
	<path style="fill:#B83C26;" d="M392.541,384.022c-3.53,0-6.789-2.266-8.005-5.581c-1.211-3.302-0.235-7.164,2.461-9.444
		c2.787-2.357,6.88-2.693,10.001-0.783c3.011,1.843,4.606,5.474,3.907,8.938C400.11,381.096,396.577,384.022,392.541,384.022z"/>
	<path style="fill:#B83C26;" d="M119.459,384.022c-3.53,0-6.789-2.266-8.005-5.581c-1.236-3.37-0.19-7.275,2.592-9.554
		c2.737-2.241,6.675-2.54,9.726-0.762c3.046,1.774,4.715,5.394,4.081,8.861C127.12,381.003,123.559,384.022,119.459,384.022z"/>
</g>
</svg>